<svg width="307" height="55" viewBox="0 0 307 55" fill="none" xmlns="http://www.w3.org/2000/svg">
<path d="M14.2979 19.75C14.3979 18.3833 14.4979 17.1333 14.5979 16C14.6979 14.8333 14.7979 13.7833 14.8979 12.85L15.2979 8.85C12.6979 9.25 9.93119 10.0167 6.99785 11.15C6.29785 11.4167 5.64785 11.55 5.04785 11.55C4.14785 11.55 3.31452 11.3 2.54785 10.8C1.81452 10.3 1.23118 9.56667 0.797852 8.6C0.997852 7.86667 1.36452 7.31667 1.89785 6.95C2.46452 6.58333 3.23119 6.21666 4.19785 5.85C8.83119 4.15 14.1312 3.31667 20.0979 3.35C22.9312 3.35 25.8812 3.46667 28.9479 3.7C32.0479 3.93333 33.8645 4.06666 34.3979 4.1L37.8979 4.35C38.0312 4.35 38.2479 4.35 38.5479 4.35C38.8812 4.35 39.1479 4.43333 39.3479 4.6C39.5479 4.73333 39.6479 4.96666 39.6479 5.3C39.6479 6.13333 39.0479 6.61667 37.8479 6.75C34.8479 7.08333 32.7145 7.31667 31.4479 7.45C30.1479 7.51666 29.1645 7.58333 28.4979 7.65C25.8979 7.81667 23.9479 7.95 22.6479 8.05C21.8479 8.11667 21.2979 8.21667 20.9979 8.35C20.6979 8.45 20.4979 8.65 20.3979 8.95C20.3312 9.21666 20.2645 9.8 20.1979 10.7C20.0312 12.8 19.6812 16.4167 19.1479 21.55C18.6145 26.1833 18.2812 29.3833 18.1479 31.15C18.1145 32.1167 17.8979 33.2833 17.4979 34.65C17.2312 35.5167 17.0145 36.1 16.8479 36.4C16.6812 36.6667 16.4312 36.8333 16.0979 36.9C15.7979 36.9667 15.2145 36.9833 14.3479 36.95C13.7145 36.95 13.2145 36.8167 12.8479 36.55C12.5145 36.25 12.3479 35.85 12.3479 35.35C12.3479 35.25 12.3812 35.0333 12.4479 34.7C13.1812 31.8 13.7979 26.8167 14.2979 19.75ZM41.935 24.6C41.935 24.8333 41.9683 25.3833 42.035 26.25C42.235 26.15 42.585 26 43.085 25.8C43.585 25.5667 44.0183 25.4 44.385 25.3C44.7516 25.2 45.1016 25.15 45.435 25.15C46.835 25.15 48.1516 25.75 49.385 26.95C50.6183 28.15 51.485 29.75 51.985 31.75C52.3183 32.9833 52.6516 34.9 52.985 37.5C53.0516 38.0333 53.085 38.4167 53.085 38.65C53.085 39.7833 52.6183 40.4333 51.685 40.6C51.085 40.7333 50.485 40.5333 49.885 40C49.3183 39.4667 48.9516 38.8167 48.785 38.05C48.2516 35.5833 47.7016 33.3167 47.135 31.25C47.0683 30.9833 46.935 30.7167 46.735 30.45C46.535 30.15 46.3516 29.9833 46.185 29.95H46.135C45.9683 29.95 45.7683 30.0667 45.535 30.3C45.335 30.5 45.185 30.7333 45.085 31C44.6516 32.0667 44.2516 33.2 43.885 34.4L43.535 35.45C43.5016 35.55 43.4016 35.85 43.235 36.35C43.1016 36.85 42.9016 37.2167 42.635 37.45C42.3683 37.6833 42.0183 37.7833 41.585 37.75C40.6183 37.65 39.8016 37.3 39.135 36.7C38.4683 36.0667 38.1016 35.3167 38.035 34.45C37.2683 24.2833 36.635 16.5 36.135 11.1C36.0683 10.1667 36.185 9.53333 36.485 9.2C36.785 8.83333 37.3516 8.65 38.185 8.65C40.4183 8.65 41.585 10.0833 41.685 12.95C41.785 15.2833 41.835 17.6167 41.835 19.95L41.935 24.6ZM63.7064 29.2C63.3731 29.4 62.8898 29.5 62.2564 29.5C62.0231 29.5 61.7398 29.4833 61.4064 29.45C61.0731 29.4167 60.7898 29.4167 60.5564 29.45C60.8231 30.55 61.4564 31.45 62.4564 32.15C63.4564 32.8167 64.5731 33.15 65.8064 33.15C66.8731 33.15 67.8231 32.9167 68.6564 32.45C69.8898 31.8167 70.9564 31.0667 71.8564 30.2C72.4898 29.5667 73.0898 29.25 73.6564 29.25C74.0231 29.25 74.3398 29.4333 74.6064 29.8C74.8731 30.2333 75.0064 30.7667 75.0064 31.4C75.0064 32.0667 74.8731 32.5833 74.6064 32.95C73.7398 34.2833 72.6064 35.2 71.2064 35.7C69.8398 36.2 68.2398 36.45 66.4064 36.45C64.5064 36.45 62.6731 36.0333 60.9064 35.2C59.1398 34.3667 57.6231 33.2333 56.3564 31.8C55.1231 30.3333 54.3064 28.7167 53.9064 26.95C53.6398 25.9167 53.5064 24.9 53.5064 23.9C53.5064 22.3333 53.9398 21.0667 54.8064 20.1C55.7064 19.1333 57.1398 18.2167 59.1064 17.35C60.9064 16.5833 62.5731 16.2 64.1064 16.2C65.2064 16.2 66.2731 16.3667 67.3064 16.7C70.5064 17.7 72.1064 19.0667 72.1064 20.8C72.1064 21.9 71.4564 23.2333 70.1564 24.8C69.5231 25.5333 68.7731 26.1833 67.9064 26.75C67.0398 27.3167 66.1898 27.8333 65.3564 28.3C64.5564 28.7333 64.0064 29.0333 63.7064 29.2ZM65.8064 19.95C65.7731 19.7833 65.6398 19.65 65.4064 19.55C65.2064 19.4167 65.0898 19.3333 65.0564 19.3C64.1564 19.2333 63.2398 19.5 62.3064 20.1C61.3731 20.6667 60.5898 21.4 59.9564 22.3C59.3564 23.2 59.0564 24.0667 59.0564 24.9L59.1064 25.3C59.1398 25.4333 59.3064 25.6 59.6064 25.8C59.9398 26 60.1398 26.0667 60.2064 26C62.5731 24.2333 64.3564 22.8167 65.5564 21.75C65.7564 21.55 65.8564 21.1833 65.8564 20.65C65.8564 20.3167 65.8398 20.0833 65.8064 19.95ZM79.7951 5.35C79.8285 5.38333 79.4118 5.01667 78.5451 4.25C77.9451 3.71667 77.4951 3.33333 77.1951 3.1C77.3285 2.2 77.6618 1.56666 78.1951 1.2C78.7285 0.833331 79.4285 0.549997 80.2951 0.349998C81.1951 0.116666 82.1618 -4.76837e-07 83.1951 -4.76837e-07C84.1951 -4.76837e-07 85.2118 0.0999992 86.2451 0.299999C89.2118 0.833331 91.8285 1.45 94.0951 2.15C96.3618 2.85 98.4785 3.83333 100.445 5.1C101.812 5.93333 102.962 6.91666 103.895 8.05C105.262 9.81666 105.945 11.6167 105.945 13.45C105.945 15.0167 105.428 16.6333 104.395 18.3C100.462 24.5333 96.4118 29.45 92.2451 33.05C89.7118 35.2833 86.9118 37.1167 83.8451 38.55C82.7118 39.1167 81.5285 39.4 80.2951 39.4C78.8285 39.4 77.4118 38.9833 76.0451 38.15C75.5451 37.8167 75.1618 37.4667 74.8951 37.1C74.6285 36.7667 74.4951 36.3667 74.4951 35.9L74.5451 35.45L74.8951 32.85C75.2951 29.7833 75.6618 27.5 75.9951 26L76.2451 24.9C77.2451 20.5667 77.9951 17.0833 78.4951 14.45C78.9951 11.7833 79.3618 9.05 79.5951 6.25L79.7951 5.35ZM86.3951 4.75C85.9951 4.71667 85.4618 4.75 84.7951 4.85L83.6951 5C84.4951 5.66667 85.0785 6.25 85.4451 6.75C85.8118 7.25 85.9951 7.78333 85.9951 8.35C85.9951 8.48333 85.9618 8.71667 85.8951 9.05C85.4618 10.9833 84.8785 13.3667 84.1451 16.2L82.3451 23.4C81.5451 26.6667 80.8451 29.7 80.2451 32.5C80.1451 32.8667 80.0785 33.2833 80.0451 33.75C80.0451 34.1833 80.0451 34.5 80.0451 34.7C80.3451 34.8333 80.5118 34.9 80.5451 34.9L81.1951 34.65C86.1951 32.2167 90.4618 28.8167 93.9951 24.45C95.4285 22.6167 96.6285 20.8833 97.5951 19.25C98.5951 17.6167 99.3451 15.9 99.8451 14.1C99.9785 13.6667 100.045 13.15 100.045 12.55C100.045 11.5167 99.7785 10.5833 99.2451 9.75C98.7451 8.91666 98.0451 8.28333 97.1451 7.85C93.8118 6.35 90.2285 5.31667 86.3951 4.75ZM111.131 17.5C111.431 17.4667 111.681 17.4667 111.881 17.5C112.081 17.5 112.264 17.5 112.431 17.5C112.664 17.4667 113.014 17.45 113.481 17.45C115.747 17.45 117.981 18.1 120.181 19.4C121.147 20 121.631 20.6333 121.631 21.3C121.631 22.0333 121.131 22.6833 120.131 23.25C119.297 23.75 118.431 24.3333 117.531 25C115.931 26.0667 114.564 26.9 113.431 27.5C112.331 28.1 111.114 28.5167 109.781 28.75C109.581 28.8167 109.364 29 109.131 29.3C108.931 29.5667 108.847 29.7667 108.881 29.9C108.947 30.1 109.064 30.5167 109.231 31.15C109.397 31.75 109.581 32.2667 109.781 32.7C110.014 33.1 110.281 33.4333 110.581 33.7C110.914 33.9667 111.414 34.1 112.081 34.1C112.747 34.1 113.364 34 113.931 33.8C115.931 32.8667 117.831 31.7 119.631 30.3C120.164 29.9333 120.631 29.75 121.031 29.75C121.531 29.75 122.064 30.0167 122.631 30.55C123.031 30.9167 123.231 31.3 123.231 31.7C123.231 32.1333 122.914 32.6667 122.281 33.3C119.447 36.0667 116.431 37.45 113.231 37.45C112.364 37.45 111.297 37.2833 110.031 36.95C107.897 36.4167 106.264 35.2333 105.131 33.4C103.997 31.5667 103.431 29.4667 103.431 27.1C103.431 26.3667 103.481 25.6667 103.581 25C103.614 24.7667 103.681 24.2833 103.781 23.55C103.914 22.7833 104.114 22.15 104.381 21.65C105.647 19.15 107.897 17.7667 111.131 17.5ZM114.031 21.1C113.431 20.9 112.897 20.8 112.431 20.8C111.664 20.8 111.064 21.0333 110.631 21.5C110.197 21.9667 109.847 22.6667 109.581 23.6C110.381 23.7 111.231 23.5 112.131 23C113.064 22.4667 113.697 21.8333 114.031 21.1ZM132.308 29.5C132.341 29.5667 132.891 30.6833 133.958 32.85C134.425 31.8833 134.775 30.6333 135.008 29.1C135.275 27.5333 135.441 26.5833 135.508 26.25C135.608 25.8833 135.691 25.5833 135.758 25.35C135.825 25.1167 135.975 24.5833 136.208 23.75C136.475 22.9167 136.758 22.1667 137.058 21.5C137.291 20.9333 137.625 20.4 138.058 19.9C138.525 19.3667 139.008 19.0167 139.508 18.85C139.808 18.75 140.091 18.7 140.358 18.7C140.991 18.7 141.491 18.9333 141.858 19.4C142.258 19.8667 142.458 20.4833 142.458 21.25C142.458 21.65 142.408 22.05 142.308 22.45C141.541 25.45 140.175 30.2 138.208 36.7C137.708 38.3333 136.541 39.0667 134.708 38.9C132.875 38.7333 131.441 38.1 130.408 37C129.375 35.9 128.408 34.35 127.508 32.35C127.108 31.4833 126.625 30.2833 126.058 28.75C125.858 28.1833 125.525 27.3333 125.058 26.2C124.925 25.9333 124.725 25.5833 124.458 25.15C124.225 24.6833 124.058 24.2833 123.958 23.95C123.891 23.8167 123.741 23.4833 123.508 22.95C123.308 22.4167 123.208 21.9667 123.208 21.6C123.208 21.4667 123.241 21.3 123.308 21.1C123.475 20.7333 123.891 20.4333 124.558 20.2C125.258 19.9333 125.891 19.8 126.458 19.8C127.558 19.8 128.541 20.7167 129.408 22.55C130.275 24.3833 130.925 25.8667 131.358 27L132.308 29.5ZM172.976 32.2C173.076 32.5333 173.126 32.85 173.126 33.15C173.126 33.6833 172.959 34.1167 172.626 34.45C172.326 34.75 171.909 34.9 171.376 34.9C171.176 34.9 171.009 34.8833 170.876 34.85C169.376 34.5167 168.192 34.15 167.326 33.75C166.659 33.45 165.426 32.7 163.626 31.5C162.259 30.6 161.126 29.9 160.226 29.4C159.059 28.7667 157.809 28.3333 156.476 28.1C155.876 28 154.459 27.8333 152.226 27.6C151.226 27.5333 150.492 27.4667 150.026 27.4L149.126 34.8L149.176 35.6C149.176 36.8 149.026 37.6 148.726 38C148.459 38.4 147.892 38.6 147.026 38.6C146.126 38.6 145.342 38.3167 144.676 37.75C144.009 37.1833 143.676 36.4833 143.676 35.65C143.676 33.1167 143.809 30.8667 144.076 28.9C145.009 22.8667 147.159 16.6 150.526 10.1C152.426 6.46667 155.342 3.66667 159.276 1.7C160.542 1.06667 161.826 0.749999 163.126 0.749999C164.459 0.749999 165.692 1.1 166.826 1.8C167.992 2.46667 168.959 3.45 169.726 4.75C170.426 5.91667 170.776 7.05 170.776 8.15C170.776 9.68333 170.176 11.2333 168.976 12.8C167.542 14.6667 165.509 17.3167 162.876 20.75L159.626 24.95C159.659 24.95 159.692 25 159.726 25.1C159.792 25.1667 159.859 25.2333 159.926 25.3L161.026 25.9C163.792 27.4 165.826 28.5833 167.126 29.45C168.392 30.2167 169.742 30.6 171.176 30.6C171.609 30.6 171.942 30.5833 172.176 30.55C172.276 30.7167 172.409 30.9667 172.576 31.3C172.742 31.6333 172.876 31.9333 172.976 32.2ZM154.476 22.3C155.842 20.7667 157.209 19.1667 158.576 17.5C159.976 15.8333 161.209 14.2667 162.276 12.8C162.709 12.2 163.076 11.5667 163.376 10.9C163.676 10.2 163.942 9.5 164.176 8.8C164.442 8.1 164.626 7.6 164.726 7.3C164.759 7.2 164.776 7.03333 164.776 6.8C164.776 6.53333 164.742 6.2 164.676 5.8C164.609 5.4 164.559 5.11666 164.526 4.95C162.092 5.68333 159.876 7.18333 157.876 9.45C155.876 11.7167 154.292 14.2333 153.126 17C151.992 19.7667 151.409 22.15 151.376 24.15C152.042 24.2167 152.559 24.1 152.926 23.8C153.326 23.5 153.842 23 154.476 22.3ZM184.048 29.2C183.715 29.4 183.232 29.5 182.598 29.5C182.365 29.5 182.082 29.4833 181.748 29.45C181.415 29.4167 181.132 29.4167 180.898 29.45C181.165 30.55 181.798 31.45 182.798 32.15C183.798 32.8167 184.915 33.15 186.148 33.15C187.215 33.15 188.165 32.9167 188.998 32.45C190.232 31.8167 191.298 31.0667 192.198 30.2C192.832 29.5667 193.432 29.25 193.998 29.25C194.365 29.25 194.682 29.4333 194.948 29.8C195.215 30.2333 195.348 30.7667 195.348 31.4C195.348 32.0667 195.215 32.5833 194.948 32.95C194.082 34.2833 192.948 35.2 191.548 35.7C190.182 36.2 188.582 36.45 186.748 36.45C184.848 36.45 183.015 36.0333 181.248 35.2C179.482 34.3667 177.965 33.2333 176.698 31.8C175.465 30.3333 174.648 28.7167 174.248 26.95C173.982 25.9167 173.848 24.9 173.848 23.9C173.848 22.3333 174.282 21.0667 175.148 20.1C176.048 19.1333 177.482 18.2167 179.448 17.35C181.248 16.5833 182.915 16.2 184.448 16.2C185.548 16.2 186.615 16.3667 187.648 16.7C190.848 17.7 192.448 19.0667 192.448 20.8C192.448 21.9 191.798 23.2333 190.498 24.8C189.865 25.5333 189.115 26.1833 188.248 26.75C187.382 27.3167 186.532 27.8333 185.698 28.3C184.898 28.7333 184.348 29.0333 184.048 29.2ZM186.148 19.95C186.115 19.7833 185.982 19.65 185.748 19.55C185.548 19.4167 185.432 19.3333 185.398 19.3C184.498 19.2333 183.582 19.5 182.648 20.1C181.715 20.6667 180.932 21.4 180.298 22.3C179.698 23.2 179.398 24.0667 179.398 24.9L179.448 25.3C179.482 25.4333 179.648 25.6 179.948 25.8C180.282 26 180.482 26.0667 180.548 26C182.915 24.2333 184.698 22.8167 185.898 21.75C186.098 21.55 186.198 21.1833 186.198 20.65C186.198 20.3167 186.182 20.0833 186.148 19.95ZM195.537 35.3C195.637 35.2667 195.82 35.25 196.087 35.25C196.087 22.95 196.07 13.7167 196.037 7.55C196.037 7.11666 195.92 6.61666 195.687 6.05C195.454 5.45 195.287 5 195.187 4.7C194.954 4.06667 194.837 3.53333 194.837 3.1C194.837 2.23333 195.27 1.55 196.137 1.05C196.67 0.716665 197.354 0.549998 198.187 0.549998C198.72 0.549998 199.22 0.633332 199.687 0.799998C200.154 0.966665 200.487 1.23333 200.687 1.6C201.52 3.06667 201.92 4.4 201.887 5.6C201.82 7.26667 201.72 9.15 201.587 11.25C201.454 13.3167 201.37 14.75 201.337 15.55C201.137 17.75 200.987 19.9667 200.887 22.2L200.637 28.95C200.604 30.45 200.52 32.7 200.387 35.7C200.32 36.5667 200.104 37.1833 199.737 37.55C199.404 37.9167 198.854 38.1 198.087 38.1C197.754 38.1 197.487 38.0833 197.287 38.05C196.487 37.9833 195.987 37.7167 195.787 37.25C195.587 36.7833 195.504 36.1333 195.537 35.3ZM204.897 21.65C204.864 21.4167 204.847 21.0333 204.847 20.5C204.847 19.2 204.981 17.9333 205.247 16.7C205.514 15.4667 205.897 14.1167 206.397 12.65C206.897 11.2833 207.847 9.91667 209.247 8.55C210.647 7.18333 212.214 6.06667 213.947 5.2C215.681 4.3 217.247 3.85 218.647 3.85C220.081 3.85 221.481 4.38333 222.847 5.45C224.214 6.48333 225.081 7.66667 225.447 9C225.514 9.4 225.547 9.66666 225.547 9.8C225.547 10.3 225.397 10.6833 225.097 10.95C224.831 11.1833 224.464 11.3 223.997 11.3C223.631 11.3 223.347 11.2833 223.147 11.25C223.047 11.25 222.897 11.1833 222.697 11.05C221.731 10.5167 220.797 10.25 219.897 10.25C218.197 10.25 216.514 11.1333 214.847 12.9C212.014 15.8667 210.597 19.4 210.597 23.5C210.597 24.9667 210.747 26.3833 211.047 27.75C211.381 29.2833 211.964 30.4167 212.797 31.15C213.664 31.85 214.814 32.2 216.247 32.2C216.747 32.2 217.297 32.15 217.897 32.05C219.997 31.7833 221.931 31.15 223.697 30.15C225.464 29.1167 227.414 27.75 229.547 26.05C230.047 25.65 230.931 24.8167 232.197 23.55L233.197 22.5C233.631 22.0667 233.997 21.7667 234.297 21.6C234.631 21.4 234.931 21.3 235.197 21.3C235.631 21.3 236.164 21.5167 236.797 21.95C237.497 22.45 237.847 23.0833 237.847 23.85C237.847 24.3833 237.664 24.8833 237.297 25.35C237.164 25.5833 236.797 26.1333 236.197 27C235.597 27.8333 235.014 28.5833 234.447 29.25C233.881 29.9167 233.314 30.4833 232.747 30.95C229.681 33.65 226.481 35.4667 223.147 36.4C221.681 36.8 220.214 37 218.747 37C216.047 37 213.647 36.3167 211.547 34.95C209.481 33.5833 207.864 31.8 206.697 29.6C205.531 27.3667 204.931 25.05 204.897 22.65V21.65ZM249.237 14.8C250.77 14.8 252.02 15.25 252.987 16.15C253.987 17.0167 254.67 18.1833 255.037 19.65C255.237 20.45 255.304 21.35 255.237 22.35C255.204 22.9167 255.17 23.7167 255.137 24.75C255.104 25.6167 254.987 26.9 254.787 28.6C254.587 30.2667 254.47 31.5167 254.437 32.35C254.404 32.95 254.387 33.8333 254.387 35L254.437 39.05C253.804 39.3167 253.237 39.45 252.737 39.45C252.237 39.45 251.72 39.2833 251.187 38.95C250.82 38.6833 250.57 38.5167 250.437 38.45C250.337 38.3833 250.187 38.1 249.987 37.6L249.587 36.65L249.337 35.5C247.47 35.9 246.37 36.1333 246.037 36.2C245.57 36.2333 245.204 36.25 244.937 36.25C243.704 36.25 242.504 35.95 241.337 35.35C240.204 34.75 239.287 33.9167 238.587 32.85C237.92 31.7833 237.57 30.6333 237.537 29.4C237.504 28.2333 237.92 27.3 238.787 26.6C240.62 25.1333 242.404 24.4 244.137 24.4C245.004 24.4 245.92 24.6 246.887 25C247.387 25.2 248.454 25.65 250.087 26.35L250.287 24.95C250.487 23.75 250.587 22.7833 250.587 22.05C250.587 20.95 250.337 19.9167 249.837 18.95C249.337 18.7833 248.97 18.7333 248.737 18.8C247.87 18.9333 247.004 19.1167 246.137 19.35C245.27 19.55 244.087 19.65 242.587 19.65C242.187 19.65 241.787 19.5 241.387 19.2C240.987 18.8667 240.804 18.5 240.837 18.1C240.937 17.5667 241.237 16.9667 241.737 16.3C242.037 15.9333 242.454 15.7167 242.987 15.65C243.62 15.55 244.137 15.4833 244.537 15.45C246.604 15.0167 248.17 14.8 249.237 14.8ZM244.987 32.15C245.787 31.9167 246.454 31.65 246.987 31.35C247.52 31.0167 247.987 30.5333 248.387 29.9C247.187 28.9667 246.27 28.3167 245.637 27.95C245.004 27.5833 244.387 27.4 243.787 27.4C243.554 27.4 243.27 27.45 242.937 27.55C242.604 27.65 242.354 27.8 242.187 28C241.887 28.3667 241.737 28.8833 241.737 29.55C241.737 30.15 241.854 30.6667 242.087 31.1C242.354 31.4667 242.687 31.75 243.087 31.95C243.487 32.15 243.904 32.25 244.337 32.25C244.47 32.25 244.687 32.2167 244.987 32.15ZM277.192 21.55C278.559 19.55 280.109 18.8833 281.842 19.55C283.609 20.2167 284.675 21.05 285.042 22.05L286.542 26.05C286.942 27.0833 287.275 28.6667 287.542 30.8C287.842 32.9333 288.109 34.9667 288.342 36.9C288.375 37 288.392 37.1833 288.392 37.45C288.392 38.4833 287.825 39.15 286.692 39.45C285.959 39.65 285.359 39.4667 284.892 38.9C284.192 38.0667 283.625 36.7833 283.192 35.05C282.959 34.1167 282.625 32.1167 282.192 29.05C282.192 26.65 281.359 25.7667 279.692 26.4C278.825 28.1 278.259 29.4833 277.992 30.55C277.759 31.6167 277.509 32.5333 277.242 33.3C276.409 35.2333 275.692 36.2833 275.092 36.45C274.525 36.5833 273.959 36.5167 273.392 36.25C272.859 35.9833 272.592 35.45 272.592 34.65C272.592 32.9833 272.492 30.95 272.292 28.55C272.125 26.1167 271.559 24.9667 270.592 25.1C269.659 25.2 269.009 25.55 268.642 26.15C268.275 26.7167 267.809 27.8 267.242 29.4C266.709 31 266.309 32.75 266.042 34.65C265.975 35.15 265.775 35.7 265.442 36.3C265.142 36.8667 264.859 37.2167 264.592 37.35C264.325 37.5167 263.825 37.4333 263.092 37.1C262.392 36.8 261.975 36.35 261.842 35.75C261.709 35.1167 261.592 34.4667 261.492 33.8C261.225 31.9333 261.092 30.3333 261.092 29C261.125 27.6667 261.025 26.4167 260.792 25.25C260.725 24.9833 260.575 24.5833 260.342 24.05C260.109 23.5167 258.892 22.6167 256.692 21.35C256.092 20.7833 255.809 20.2333 255.842 19.7C255.875 19.1333 256.109 18.7167 256.542 18.45C257.209 18.05 257.925 17.85 258.692 17.85C259.659 17.85 260.575 18.1333 261.442 18.7C262.309 19.2667 262.959 19.9 263.392 20.6C263.792 21.2333 264.059 21.7333 264.192 22.1C264.325 22.4667 264.509 22.65 264.742 22.65C264.942 22.65 265.159 22.5 265.392 22.2C265.659 21.8667 266.025 21.45 266.492 20.95C267.459 19.9167 268.375 19.2333 269.242 18.9C270.142 18.5333 270.875 18.35 271.442 18.35C272.042 18.35 272.675 18.55 273.342 18.95C274.009 19.3167 274.459 19.9667 274.692 20.9L275.642 24.6L277.192 21.55ZM301.92 33C300.92 34.0667 299.837 34.6 298.67 34.6C297.703 34.6 296.687 34.2833 295.62 33.65L295.47 38.2C295.303 41.5333 295.22 44.4333 295.22 46.9C295.22 47.3667 295.253 48.1 295.32 49.1C295.387 50.1 295.42 50.8333 295.42 51.3C295.42 51.8 295.403 52.1667 295.37 52.4C295.337 52.7 295.137 53.0167 294.77 53.35C294.403 53.7167 294.037 53.95 293.67 54.05C293.403 54.1167 293.22 54.15 293.12 54.15C292.353 54.15 291.603 53.8167 290.87 53.15C290.17 52.4833 289.837 51.7833 289.87 51.05C289.937 48.55 290.07 44.9333 290.27 40.2L290.62 29.3C290.687 27.3 290.57 25.6167 290.27 24.25C290.203 23.85 290.17 23.5833 290.17 23.45C290.17 22.9167 290.32 22.5 290.62 22.2C290.953 21.9 291.387 21.7167 291.92 21.65C292.753 21.5833 293.42 21.3667 293.92 21C294.42 20.6 295.003 19.9833 295.67 19.15C296.87 17.65 298.187 16.9 299.62 16.9C301.22 16.9 303.037 17.8833 305.07 19.85C306.003 20.75 306.47 21.9667 306.47 23.5C306.47 24.0667 306.42 24.6333 306.32 25.2C306.087 26.6 305.587 27.9 304.82 29.1C304.087 30.3 303.12 31.6 301.92 33ZM297.27 24.65C296.537 26.65 296.17 28.4333 296.17 30C296.17 30.3667 296.187 30.6333 296.22 30.8L296.82 31.1C297.487 30.9 298.187 30.3167 298.92 29.35C299.653 28.3833 300.253 27.3 300.72 26.1C301.22 24.8667 301.47 23.7833 301.47 22.85C301.47 22.45 301.387 22.05 301.22 21.65C300.987 21.2167 300.637 21 300.17 21C299.57 21 299.137 21.2167 298.87 21.65C298.77 21.7833 298.537 22.15 298.17 22.75C297.803 23.35 297.503 23.9833 297.27 24.65Z" fill="white"/>
</svg>
